<?xml version="1.0" encoding="UTF-8"?>
<svg id="a" data-name="レイヤー 1" xmlns="http://www.w3.org/2000/svg" viewBox="0 0 32 32">
  <defs>
    <style>
      .b {
        fill: #0028ff;
        stroke-width: 0px;
      }
    </style>
  </defs>
  <path class="b" d="m28.01,19.26c-.76-2.94-2.03-8.37-2.96-11.29-.53-1.67-1.47-3.64-4.45-3.81-1.18-.07-15.8-.06-15.8-.06l9.3,14.74c0,2.17-.02,5.36-.02,6.38,0,0-4.77-3.6-6.09-4.76-.24-.21-.38-.5-.4-.81-.09-1.88-.02-4.07-.01-7.53,0-.29-.08-.57-.23-.81-.44-.7-1.78-2.79-1.78-2.79v11.92c0,.52.26.97.67,1.32,1.32,1.15,9.89,7.62,9.89,7.62v-4.78c0-.22.17-.4.39-.4,2.71,0,7.36-.01,7.79-.03,2.34-.09,3.85-1.53,3.85-3.67,0-.3-.03-.77-.15-1.24ZM8.25,5.89s10.96.04,12.05.09c1.86.08,2.91,1.57,2.82,3.1-.08,1.31-.99,2.75-2.63,2.87-.88.07-4.2.09-6.6.03-1.06-.03-1.89-.47-2.44-1.26-.82-1.18-3.2-4.83-3.2-4.83Zm5.23,7.98c1.9.03,6.24.01,6.87,0,2.03-.07,3.05-.89,3.69-1.7,0,0,.35,1.11.67,2.29.36,1.32.64,2.7.64,2.7-.26-.1-.48-.17-.96-.18-.43,0-5.13,0-7.59,0-.79,0-1.51-.39-1.95-1.05l-1.38-2.05Zm10.93,8.43c-.42.04-5.64.03-8.29.03v-3.51c1.72-.01,7.59-.08,8.32-.01.92.09,1.59.63,1.58,1.76-.01,1.18-.88,1.67-1.61,1.74Z"/>
</svg>